<?xml version="1.0" standalone="no"?>
<!DOCTYPE svg PUBLIC "-//W3C//DTD SVG 20010904//EN"
 "http://www.w3.org/TR/2001/REC-SVG-20010904/DTD/svg10.dtd">
<svg version="1.0" xmlns="http://www.w3.org/2000/svg"
 width="200.000000pt" height="200.000000pt" viewBox="0 0 200.000000 200.000000"
 preserveAspectRatio="xMidYMid meet">

<g transform="translate(0.000000,200.000000) scale(0.100000,-0.100000)"
fill="#000000" stroke="none">
<path d="M856 1299 c-14 -17 -26 -36 -26 -42 0 -7 6 -3 12 8 6 11 20 30 31 43
11 12 18 22 15 22 -4 0 -18 -14 -32 -31z"/>
<path d="M927 1270 c-69 -55 3 -156 87 -124 29 11 17 27 -15 20 -24 -4 -35 -1
-54 18 -39 39 -10 91 48 84 12 -2 24 2 27 7 10 21 -65 17 -93 -5z"/>
<path d="M830 1177 c0 -22 61 -87 82 -87 7 0 -2 9 -20 20 -18 11 -39 35 -47
53 -9 20 -14 25 -15 14z"/>
<path d="M1080 1172 c0 -6 -12 -25 -27 -44 -22 -27 -23 -29 -4 -13 27 23 45
54 37 63 -3 3 -6 0 -6 -6z"/>
<path d="M948 1083 c12 -2 30 -2 40 0 9 3 -1 5 -23 4 -22 0 -30 -2 -17 -4z"/>
<path d="M365 995 c-14 -13 -25 -36 -25 -50 0 -32 41 -75 73 -75 13 0 32 6 43
14 17 13 18 15 2 21 -10 4 -23 5 -30 2 -22 -8 -48 13 -48 37 0 30 23 49 49 41
29 -9 45 3 30 21 -18 22 -67 17 -94 -11z m75 5 c8 -5 11 -10 5 -10 -5 0 -17 5
-25 10 -8 5 -10 10 -5 10 6 0 17 -5 25 -10z"/>
<path d="M500 944 c0 -66 2 -75 17 -72 11 2 20 16 23 33 l6 30 17 -32 c10 -18
24 -33 32 -33 18 0 18 2 3 34 -9 22 -8 29 7 46 17 18 17 21 1 45 -14 21 -24
25 -61 25 l-45 0 0 -76z m76 35 c3 -6 0 -15 -7 -20 -8 -5 -9 -9 -3 -9 5 0 15
5 22 12 9 9 12 9 12 0 0 -7 -7 -15 -16 -19 -9 -3 -13 -12 -9 -21 5 -13 3 -13
-13 1 -10 9 -27 18 -38 18 -17 1 -17 2 -1 6 9 2 17 13 17 24 0 21 24 26 36 8z"/>
<path d="M650 945 c0 -60 3 -75 15 -75 12 0 15 15 15 75 0 60 -3 75 -15 75
-12 0 -15 -15 -15 -75z"/>
<path d="M732 1008 c-20 -20 -13 -46 18 -68 37 -26 38 -42 4 -38 -33 4 -43
-18 -14 -27 32 -10 68 2 76 27 5 17 0 28 -25 48 -37 32 -39 43 -6 34 18 -4 25
-2 25 9 0 26 -56 37 -78 15z m48 -2 c0 -2 -9 -6 -20 -9 -11 -3 -18 -1 -14 4 5
9 34 13 34 5z"/>
<path d="M840 1005 c0 -8 7 -15 15 -15 10 0 15 -15 17 -57 2 -46 7 -59 21 -61
15 -3 17 5 17 57 0 48 3 61 15 61 8 0 15 7 15 15 0 11 -12 15 -50 15 -38 0
-50 -4 -50 -15z"/>
<path d="M974 1006 c-3 -7 -4 -40 -2 -72 2 -47 7 -59 21 -62 15 -3 17 6 17 72
0 62 -3 76 -15 76 -9 0 -18 -6 -21 -14z"/>
<path d="M1070 958 c-17 -35 -30 -69 -30 -75 0 -15 16 -17 25 -3 3 6 22 10 41
10 19 0 34 -4 34 -10 0 -5 7 -10 15 -10 8 0 15 4 15 9 0 14 -58 141 -65 141
-3 0 -19 -28 -35 -62z m40 -23 c0 -8 -4 -15 -10 -15 -5 0 -7 7 -4 15 4 8 8 15
10 15 2 0 4 -7 4 -15z m-49 -38 c-10 -9 -11 -8 -5 6 3 10 9 15 12 12 3 -3 0
-11 -7 -18z"/>
<path d="M1200 944 c0 -66 2 -75 18 -72 11 2 19 15 22 36 l5 33 34 -35 c19
-20 39 -36 43 -36 4 0 8 34 8 76 0 66 -2 75 -17 72 -13 -2 -18 -13 -17 -36 0
-17 -3 -32 -6 -32 -3 0 -21 16 -40 35 -19 19 -38 35 -42 35 -4 0 -8 -34 -8
-76z m60 11 c19 -19 32 -35 29 -35 -3 0 -20 16 -39 35 -19 19 -32 35 -29 35 3
0 20 -16 39 -35z"/>
<path d="M1360 1005 c0 -8 7 -15 15 -15 10 0 15 -15 17 -57 2 -46 7 -59 21
-61 15 -3 17 5 17 57 0 48 3 61 15 61 8 0 15 7 15 15 0 11 -12 15 -50 15 -38
0 -50 -4 -50 -15z"/>
<path d="M1494 1006 c-3 -7 -4 -40 -2 -72 l3 -59 43 -3 c33 -2 42 0 42 12 0
10 -9 16 -25 16 -24 0 -25 3 -25 60 0 47 -3 60 -15 60 -9 0 -18 -6 -21 -14z"/>
<path d="M103 790 c0 -25 2 -35 4 -22 2 12 2 32 0 45 -2 12 -4 2 -4 -23z"/>
<path d="M170 815 c0 -8 -6 -12 -13 -9 -8 3 -20 -2 -27 -11 -16 -19 2 -45 31
-45 15 0 19 8 19 40 0 22 -2 40 -5 40 -3 0 -5 -7 -5 -15z m-3 -30 c7 -20 -2
-29 -21 -22 -9 4 -13 13 -10 22 8 19 23 19 31 0z"/>
<path d="M430 788 c0 -24 4 -38 8 -32 4 7 16 14 27 17 18 4 18 5 -2 6 -35 2
-31 39 5 44 25 4 25 4 -5 6 -32 1 -33 0 -33 -41z"/>
<path d="M761 820 c-1 -8 -4 -25 -7 -37 -4 -15 -2 -23 6 -23 7 0 10 7 6 16 -3
8 -2 12 4 9 12 -7 12 3 0 30 -6 13 -9 15 -9 5z"/>
<path d="M952 793 c-2 -42 -2 -43 31 -42 29 2 29 2 5 6 -23 4 -27 10 -31 41
l-4 37 -1 -42z"/>
<path d="M1380 793 c0 -34 4 -43 18 -43 13 0 14 2 3 9 -8 5 -12 18 -9 29 3 11
2 26 -3 33 -6 9 -9 -1 -9 -28z"/>
<path d="M1531 819 c0 -9 6 -30 14 -45 8 -16 15 -23 15 -16 0 7 7 20 15 28 8
9 15 23 14 32 0 12 -3 11 -9 -5 -5 -13 -16 -23 -24 -23 -8 0 -17 10 -19 23 -2
12 -5 15 -6 6z"/>
<path d="M810 811 c0 -5 -7 -17 -16 -26 -9 -9 -14 -19 -10 -22 3 -4 13 2 22
13 13 16 15 17 10 2 -3 -10 -1 -18 4 -18 6 0 9 14 8 30 -2 26 -18 45 -18 21z"/>
<path d="M1155 803 c2 -10 4 -26 4 -35 1 -10 4 -18 9 -18 11 0 6 64 -6 68 -6
2 -9 -5 -7 -15z"/>
<path d="M200 795 c-15 -18 3 -45 29 -44 12 0 11 2 -4 9 -19 8 -19 9 3 9 25 1
30 26 6 35 -21 8 -20 8 -34 -9z m35 -5 c3 -5 -1 -10 -9 -10 -9 0 -16 5 -16 10
0 6 4 10 9 10 6 0 13 -4 16 -10z"/>
<path d="M270 795 c-18 -21 -5 -45 25 -45 27 0 35 26 13 48 -16 16 -23 15 -38
-3z m36 -6 c10 -17 -13 -36 -27 -22 -12 12 -4 33 11 33 5 0 12 -5 16 -11z"/>
<path d="M334 798 c-4 -6 1 -17 10 -24 16 -12 16 -13 -1 -17 -15 -4 -14 -5 4
-6 29 -1 40 19 14 26 -26 7 -27 20 -3 26 15 4 15 5 0 6 -9 0 -20 -4 -24 -11z"/>
<path d="M513 803 c-7 -2 -12 -17 -12 -31 1 -21 2 -23 6 -7 3 11 10 26 15 33
11 13 10 13 -9 5z"/>
<path d="M552 801 c-20 -12 -10 -46 14 -49 25 -4 40 24 23 44 -13 16 -19 17
-37 5z m34 -12 c10 -17 -13 -36 -27 -22 -12 12 -4 33 11 33 5 0 12 -5 16 -11z"/>
<path d="M615 802 c-3 -3 -5 -17 -4 -31 1 -25 1 -25 7 -3 9 31 26 33 31 2 l4
-25 6 23 c3 13 11 23 16 23 6 0 13 -10 17 -23 6 -20 7 -19 5 7 -2 27 -5 29
-39 31 -21 0 -40 -1 -43 -4z"/>
<path d="M841 808 c-1 -4 4 -18 10 -32 9 -20 9 -29 -1 -41 -8 -10 -9 -15 -1
-15 6 0 20 18 31 40 11 22 16 40 10 40 -5 0 -10 -7 -10 -15 0 -22 -15 -18 -28
8 -6 12 -11 19 -11 15z"/>
<path d="M1020 795 c-16 -19 3 -45 31 -45 24 0 26 45 3 54 -21 8 -20 8 -34 -9z
m37 -10 c7 -20 -2 -29 -21 -22 -9 4 -13 13 -10 22 8 19 23 19 31 0z"/>
<path d="M1093 803 c-7 -2 -13 -21 -13 -41 0 -20 4 -32 8 -26 4 7 16 13 27 15
24 5 33 38 13 50 -14 10 -17 10 -35 2z m34 -18 c7 -20 -2 -29 -21 -22 -9 4
-13 13 -10 22 8 19 23 19 31 0z"/>
<path d="M1200 794 c-11 -12 -10 -18 3 -31 8 -9 23 -13 31 -10 21 8 21 43 0
51 -21 8 -20 8 -34 -10z m40 -20 c0 -14 -21 -19 -33 -7 -9 9 13 34 24 27 5 -3
9 -12 9 -20z"/>
<path d="M1277 804 c-4 -4 -7 -23 -7 -43 0 -20 4 -31 8 -25 4 6 15 13 25 17
12 5 17 15 15 29 -3 23 -27 35 -41 22z m33 -30 c0 -8 -7 -14 -15 -14 -15 0
-21 21 -9 33 10 9 24 -2 24 -19z"/>
<path d="M1424 796 c-9 -24 4 -48 23 -44 12 2 18 12 18 28 0 29 -32 41 -41 16z
m36 -22 c0 -8 -7 -14 -15 -14 -15 0 -21 21 -9 33 10 9 24 -2 24 -19z"/>
<path d="M1600 794 c-11 -12 -10 -18 3 -31 8 -9 23 -13 31 -10 21 8 21 43 0
51 -21 8 -20 8 -34 -10z m40 -20 c0 -14 -21 -19 -33 -7 -9 9 13 34 24 27 5 -3
9 -12 9 -20z"/>
<path d="M1743 803 c-7 -2 -12 -17 -12 -31 1 -21 2 -23 6 -7 3 11 10 26 15 33
11 13 10 13 -9 5z"/>
<path d="M1775 801 c-3 -5 4 -16 16 -24 20 -14 20 -16 2 -21 -16 -4 -16 -5 1
-3 23 2 34 27 12 27 -19 0 -21 16 -3 23 7 3 6 6 -5 6 -9 1 -19 -3 -23 -8z"/>
<path d="M1661 790 c-1 -21 19 -40 41 -40 13 0 18 7 17 28 0 26 -1 26 -9 5 -5
-13 -14 -23 -20 -23 -6 0 -15 10 -20 23 -5 13 -9 16 -9 7z"/>
</g>
</svg>
